<?xml version="1.0" encoding="UTF-8" standalone="no"?>
<svg
   xmlns:dc="http://purl.org/dc/elements/1.1/"
   xmlns:cc="http://creativecommons.org/ns#"
   xmlns:rdf="http://www.w3.org/1999/02/22-rdf-syntax-ns#"
   xmlns:svg="http://www.w3.org/2000/svg"
   xmlns="http://www.w3.org/2000/svg"
   xmlns:sodipodi="http://sodipodi.sourceforge.net/DTD/sodipodi-0.dtd"
   xmlns:inkscape="http://www.inkscape.org/namespaces/inkscape"
   enable-background="new 0 0 216 146"
   xml:space="preserve"
   height="16"
   viewBox="0 0 22.929 16"
   width="22.929"
   version="1.1"
   y="0px"
   x="0px"
   id="svg2"
   inkscape:version="0.91 r13725"
   sodipodi:docname="exifdes.svg"><metadata
     id="metadata16"><rdf:RDF><cc:Work
         rdf:about=""><dc:format>image/svg+xml</dc:format><dc:type
           rdf:resource="http://purl.org/dc/dcmitype/StillImage" /></cc:Work></rdf:RDF></metadata><defs
     id="defs14" /><sodipodi:namedview
     pagecolor="#ffffff"
     bordercolor="#666666"
     borderopacity="1"
     objecttolerance="10"
     gridtolerance="10"
     guidetolerance="10"
     inkscape:pageopacity="0"
     inkscape:pageshadow="2"
     inkscape:window-width="640"
     inkscape:window-height="480"
     id="namedview12"
     showgrid="false"
     inkscape:zoom="14.75"
     inkscape:cx="11.4645"
     inkscape:cy="8"
     inkscape:window-x="958"
     inkscape:window-y="269"
     inkscape:window-maximized="0"
     inkscape:current-layer="svg2" /><path
     d="m6.0073 3.428h-1.7144v12.286c0 0.08329-0.026746 0.1519-0.080334 0.20538-0.053587 0.05348-0.12198 0.08033-0.20538 0.08033h-1.7144c-0.083288 0-0.1519-0.02674-0.20538-0.08033-0.053482-0.05359-0.080334-0.12209-0.080334-0.20538v-12.286h-1.7144c-0.13086 0-0.22017-0.05951-0.26785-0.17853-0.047669-0.11321-0.026746-0.21733 0.062471-0.31267l2.8573-2.8573c0.065541-0.05338 0.13392-0.08012 0.20538-0.08012 0.07737 0 0.14587 0.02675 0.20538 0.08012l2.8484 2.8484c0.059623 0.07135 0.089322 0.14302 0.089322 0.21415 0 0.08361-0.026733 0.1519-0.080334 0.20582-0.053586 0.05349-0.12198 0.08023-0.20538 0.08023z"
     stroke-width="0"
     id="path10" /><path
     d="M 22.478712,2.6928328 C 22.252719,2.4666396 21.984727,2.353543 21.675736,2.353543 l -1.142866,0 0,-0.8571943 c 0,-0.3927582 -0.139955,-0.72908808 -0.419737,-1.00886968 -0.279992,-0.27977161 -0.615981,-0.41971741 -1.00897,-0.41971741 l -0.571303,0 c -0.392998,0 -0.729227,0.1399358 -1.008969,0.41971741 -0.279901,0.2797816 -0.419737,0.61610148 -0.419737,1.00886968 l 0,0.8571943 -3.428597,0 0,-0.8571943 c 0,-0.3927582 -0.139956,-0.72908808 -0.419738,-1.00886968 -0.278991,-0.27977161 -0.615981,-0.41971741 -1.00897,-0.41971741 l -0.571412,0 c -0.392889,0 -0.729229,0.1399358 -1.00897,0.41971741 -0.279792,0.2797816 -0.419738,0.61610148 -0.419738,1.00886968 l 0,0.8571943 -1.1428649,0 c -0.309601,0 -0.577443,0.1130966 -0.803646,0.3392798 -0.225993,0.2261933 -0.33909,0.4940852 -0.33909,0.8035759 l 0,11.4286583 c 0,0.30936 0.113097,0.577192 0.3393,0.803495 0.226203,0.226184 0.494045,0.33928 0.803646,0.33928 l 12.5716219,0 c 0.309491,0 0.577553,-0.113076 0.803536,-0.33928 0.226193,-0.226193 0.3393,-0.494135 0.3393,-0.803495 l 0,-11.4286583 c 0,-0.3095807 -0.112997,-0.5774126 -0.33908,-0.8036059 z M 18.246839,1.4964687 c 0,-0.0834 0.02664,-0.1518754 0.08011,-0.2053638 0.05349,-0.053479 0.121986,-0.08032 0.205483,-0.08032 l 0.571303,0 c 0.08351,0 0.151796,0.02674 0.205484,0.08032 0.05349,0.053599 0.08023,0.1220763 0.08023,0.2053638 l 0,2.5713229 c 0,0.0834 -0.02674,0.1517754 -0.08023,0.2053638 -0.0537,0.053479 -0.121986,0.08032 -0.205484,0.08032 l -0.571303,0 c -0.08352,0 -0.151995,-0.026739 -0.205483,-0.08032 -0.05349,-0.0536 -0.08011,-0.1219763 -0.08011,-0.2053638 l 0,-2.5713229 z m -6.857394,0 c 0,-0.0834 0.02674,-0.1518754 0.08033,-0.2053638 0.05358,-0.053479 0.121967,-0.08032 0.205374,-0.08032 l 0.571413,0 c 0.08341,0 0.151885,0.02674 0.205374,0.08032 0.05348,0.053599 0.08032,0.1220763 0.08032,0.2053638 l 0,2.5713229 c 0,0.0834 -0.02674,0.1518754 -0.08032,0.2053638 -0.05358,0.053479 -0.121987,0.08032 -0.205374,0.08032 l -0.571413,0 c -0.08341,0 -0.151885,-0.026739 -0.205374,-0.08032 -0.05348,-0.0536 -0.08033,-0.1219763 -0.08033,-0.2053638 l 0,-2.5713229 z m 10.285691,13.4285983 -12.5716219,0 0,-9.1427268 12.5716219,0 0,9.1427268 z"
     id="path6"
     inkscape:connector-curvature="0" /><path
     style="fill:none;fill-rule:evenodd;stroke:#000000;stroke-width:1px;stroke-linecap:butt;stroke-linejoin:miter;stroke-opacity:1"
     d="m 8.7025831,8.9321585 13.4915259,0 0,0 0,0"
     id="path3358"
     inkscape:connector-curvature="0" /><path
     style="fill:none;fill-rule:evenodd;stroke:#000000;stroke-width:1px;stroke-linecap:butt;stroke-linejoin:miter;stroke-opacity:1"
     d="m 11.95682,5.338938 0,10.101695"
     id="path3360"
     inkscape:connector-curvature="0" /><path
     style="fill:none;fill-rule:evenodd;stroke:#000000;stroke-width:1px;stroke-linecap:butt;stroke-linejoin:miter;stroke-opacity:1"
     d="m 18.804277,5.2711414 0,10.3728816"
     id="path3362"
     inkscape:connector-curvature="0" /><path
     style="fill:none;fill-rule:evenodd;stroke:#000000;stroke-width:1px;stroke-linecap:butt;stroke-linejoin:miter;stroke-opacity:1"
     d="m 15.482243,5.2033448 0,10.3050852"
     id="path3364"
     inkscape:connector-curvature="0" /><path
     style="fill:none;fill-rule:evenodd;stroke:#000000;stroke-width:1px;stroke-linecap:butt;stroke-linejoin:miter;stroke-opacity:1"
     d="m 8.5669901,12.254194 13.6949159,0"
     id="path3366"
     inkscape:connector-curvature="0" /><text
     xml:space="preserve"
     style="font-style:normal;font-weight:normal;font-size:3.14060903px;line-height:125%;font-family:Sans;letter-spacing:0px;word-spacing:0px;fill:#000000;fill-opacity:1;stroke:none;stroke-width:1px;stroke-linecap:butt;stroke-linejoin:miter;stroke-opacity:1"
     x="9.2944498"
     y="8.2541914"
     id="text3368"
     sodipodi:linespacing="125%"><tspan
       sodipodi:role="line"
       id="tspan3370"
       x="9.2944498"
       y="8.2541914">1</tspan></text>
</svg>