<?xml version="1.0" encoding="UTF-8" standalone="no"?>
<svg
   xmlns:dc="http://purl.org/dc/elements/1.1/"
   xmlns:cc="http://creativecommons.org/ns#"
   xmlns:rdf="http://www.w3.org/1999/02/22-rdf-syntax-ns#"
   xmlns:svg="http://www.w3.org/2000/svg"
   xmlns="http://www.w3.org/2000/svg"
   xmlns:sodipodi="http://sodipodi.sourceforge.net/DTD/sodipodi-0.dtd"
   xmlns:inkscape="http://www.inkscape.org/namespaces/inkscape"
   enable-background="new 0 0 216 146"
   xml:space="preserve"
   height="16"
   viewBox="0 0 22.929 16"
   width="22.929"
   version="1.1"
   y="0px"
   x="0px"
   id="svg2"
   inkscape:version="0.91 r13725"
   sodipodi:docname="exifasc.svg"><metadata
     id="metadata16"><rdf:RDF><cc:Work
         rdf:about=""><dc:format>image/svg+xml</dc:format><dc:type
           rdf:resource="http://purl.org/dc/dcmitype/StillImage" /></cc:Work></rdf:RDF></metadata><defs
     id="defs14" /><sodipodi:namedview
     pagecolor="#ffffff"
     bordercolor="#666666"
     borderopacity="1"
     objecttolerance="10"
     gridtolerance="10"
     guidetolerance="10"
     inkscape:pageopacity="0"
     inkscape:pageshadow="2"
     inkscape:window-width="1615"
     inkscape:window-height="816"
     id="namedview12"
     showgrid="false"
     inkscape:zoom="14.75"
     inkscape:cx="11.4645"
     inkscape:cy="10.498609"
     inkscape:window-x="0"
     inkscape:window-y="27"
     inkscape:window-maximized="0"
     inkscape:current-layer="g4" /><g
     transform="matrix(.99997 0 0 .99997 -1.1136 -.99954)"
     id="g4"><path
       d="m 23.636201,3.6416797 c -0.226,-0.2262 -0.494,-0.3393 -0.803,-0.3393 l -1.1429,0 0,-0.85722 c 0,-0.39277 -0.13996,-0.72911 -0.41975,-1.0089 -0.28,-0.27978 -0.616,-0.41973 -1.009,-0.41973 l -0.57132,0 c -0.39301,0 -0.72925,0.13994 -1.009,0.41973 -0.27991,0.27979 -0.41975,0.61612 -0.41975,1.0089 l 0,0.85722 -3.4287,0 0,-0.85722 c 0,-0.39277 -0.13996,-0.72911 -0.41975,-1.0089 -0.279,-0.27978 -0.616,-0.41973 -1.009,-0.41973 l -0.57143,0 c -0.3929,0 -0.72925,0.13994 -1.009,0.41973 -0.2798,0.27979 -0.41975,0.61612 -0.41975,1.0089 l 0,0.85722 -1.1429,0 c -0.3096096,0 -0.5774596,0.1131 -0.8036696,0.33929 -0.226,0.2262 -0.3391,0.4941 -0.3391,0.8036 l 0,11.4290003 c 0,0.30937 0.1131,0.57721 0.33931,0.80352 0.22621,0.22619 0.49406,0.33929 0.8036696,0.33929 l 12.572,0 c 0.3095,0 0.57757,-0.11308 0.80356,-0.33929 0.2262,-0.2262 0.33931,-0.49415 0.33931,-0.80352 l 0,-11.4290003 c 0,-0.30959 -0.113,-0.57743 -0.33909,-0.80363 z m -4.232,-1.1964 c 0,-0.083402 0.02664,-0.15188 0.08011,-0.20537 0.05349,-0.053481 0.12199,-0.080322 0.20549,-0.080322 l 0.57132,0 c 0.08351,0 0.1518,0.026741 0.20549,0.080322 0.05349,0.053601 0.08023,0.12208 0.08023,0.20537 l 0,2.5714 c 0,0.083402 -0.02674,0.15178 -0.08023,0.20537 -0.0537,0.053481 -0.12199,0.080322 -0.20549,0.080322 l -0.57132,0 c -0.08352,0 -0.152,-0.02674 -0.20549,-0.080322 -0.05349,-0.053602 -0.08011,-0.12198 -0.08011,-0.20537 l 0,-2.5714 z m -6.8576,0 c 0,-0.083402 0.02674,-0.15188 0.08033,-0.20537 0.05358,-0.053481 0.12197,-0.080322 0.20538,-0.080322 l 0.57143,0 c 0.08341,0 0.15189,0.026741 0.20538,0.080322 0.05348,0.053601 0.08032,0.12208 0.08032,0.20537 l 0,2.5714 c 0,0.083402 -0.02674,0.15188 -0.08032,0.20537 -0.05358,0.053481 -0.12199,0.080322 -0.20538,0.080322 l -0.57143,0 c -0.08341,0 -0.15189,-0.02674 -0.20538,-0.080322 -0.05348,-0.053602 -0.08033,-0.12198 -0.08033,-0.20537 l 0,-2.5714 z m 10.286,13.4290003 -12.572,0 0,-9.1430003 12.572,0 0,9.1430003 z"
       id="path6"
       inkscape:connector-curvature="0" /><path
       style="fill:none;fill-rule:evenodd;stroke:#000000;stroke-width:1.00003004px;stroke-linecap:butt;stroke-linejoin:miter;stroke-opacity:1"
       d="m 9.8596585,9.8811925 13.4919305,0 0,0 0,0"
       id="path3358"
       inkscape:connector-curvature="0" /><path
       style="fill:none;fill-rule:evenodd;stroke:#000000;stroke-width:1.00003004px;stroke-linecap:butt;stroke-linejoin:miter;stroke-opacity:1"
       d="m 13.113993,6.2878642 0,10.1019978"
       id="path3360"
       inkscape:connector-curvature="0" /><path
       style="fill:none;fill-rule:evenodd;stroke:#000000;stroke-width:1.00003004px;stroke-linecap:butt;stroke-linejoin:miter;stroke-opacity:1"
       d="m 19.961656,6.2200656 0,10.3731924"
       id="path3362"
       inkscape:connector-curvature="0" /><path
       style="fill:none;fill-rule:evenodd;stroke:#000000;stroke-width:1.00003004px;stroke-linecap:butt;stroke-linejoin:miter;stroke-opacity:1"
       d="m 16.639522,6.152267 0,10.305394"
       id="path3364"
       inkscape:connector-curvature="0" /><path
       style="fill:none;fill-rule:evenodd;stroke:#000000;stroke-width:1.00003004px;stroke-linecap:butt;stroke-linejoin:miter;stroke-opacity:1"
       d="m 9.7240612,13.203327 13.6953268,0"
       id="path3366"
       inkscape:connector-curvature="0" /><text
       xml:space="preserve"
       style="font-style:normal;font-weight:normal;font-size:3.1407032px;line-height:125%;font-family:Sans;letter-spacing:0px;word-spacing:0px;fill:#000000;fill-opacity:1;stroke:none;stroke-width:1px;stroke-linecap:butt;stroke-linejoin:miter;stroke-opacity:1"
       x="10.451543"
       y="9.2032051"
       id="text3368"
       sodipodi:linespacing="125%"><tspan
         sodipodi:role="line"
         id="tspan3370"
         x="10.451543"
         y="9.2032051">1</tspan></text>
</g><path
     d="m6.0073 12.571h-1.7144v-12.286c0-0.083292-0.026746-0.1519-0.080334-0.20538-0.0536-0.053425-0.122-0.080276-0.2054-0.080276h-1.7144c-0.083288 0-0.1519 0.026741-0.20538 0.080332-0.053482 0.053591-0.080334 0.12209-0.080334 0.20538v12.286h-1.7144c-0.13086 0-0.22017 0.05951-0.26785 0.17853-0.047669 0.11321-0.026746 0.21733 0.062471 0.31267l2.8572 2.8573c0.065541 0.05338 0.13392 0.08012 0.20538 0.08012 0.07737 0 0.14587-0.02675 0.20538-0.08012l2.8484-2.8484c0.059623-0.07135 0.089322-0.14302 0.089322-0.21415 0-0.08361-0.026733-0.1519-0.080334-0.20582-0.053586-0.05349-0.12198-0.08023-0.20538-0.08023z"
     stroke-width="0"
     id="path10" /></svg>